<svg id="Layer_1" data-name="Layer 1" xmlns="http://www.w3.org/2000/svg" viewBox="0 0 129.87 226.13"><defs><style>.cls-1,.cls-3{fill:#ffbffb;}.cls-1,.cls-4,.cls-6,.cls-7{fill-rule:evenodd;}.cls-2,.cls-5,.cls-8,.cls-9{fill:none;stroke-linecap:round;stroke-width:0.57px;}.cls-2,.cls-5{stroke:#000;}.cls-2{stroke-linejoin:round;}.cls-4{fill:#fefefe;}.cls-5,.cls-8,.cls-9{stroke-miterlimit:22.93;}.cls-7{fill:#373435;}.cls-8{stroke:#373435;}.cls-9{stroke:#fefefe;}</style></defs><path class="cls-1" d="M65.63,164.11c-.38-.1,5.07,3.69,5.56,5.37a2.42,2.42,0,0,1-2,2.81l-.29,0c-.56.07-.94,1.37-1.74,1.56s-2.46-.94-2.53-.82c-1,1.59-5.85-3.66-6.1-8.78-.13-2.57.68-12.07,1.06-15.62,2-18,7-59.13,19.08-73.51,1-1.21,1.75.53,2.58.72,1.31.31,2.51,1.12,3.87,5.65,1.43,4.79-.56,16.31-4.63,19-3.44,17.42-12.17,44.42-6.14,62.75.64,2-1.16,4-2.67,3.35-1-.43-1.81-1.44-2.92-4.8-.28-.83-1.89-4.11-2.48-4.39-1.36-.74-1,4.72-.7,6.72" transform="translate(-0.04 -0.03)"/><path class="cls-2" d="M69,172.32c2.72.14,3.07-3.28.9-4.89-2.8-2.08-4.46-2.73-4.71-7.37" transform="translate(-0.04 -0.03)"/><path class="cls-2" d="M65,163a15.21,15.21,0,0,0,1.32,6.2c1.38,3.29-3.19,7-6.29-.15-1.31-3-1.58-7-1.24-12.82,1.06-10.65,6.08-61.49,19-80" transform="translate(-0.04 -0.03)"/><path class="cls-2" d="M65,164.11c-.27-2,.19-7.46,1.55-6.72.59.28,1.92,3.55,2.19,4.39,1.12,3.36,1.66,4.35,2.64,4.8,2.43,1.12,3.63-1.32,3.1-3a43.86,43.86,0,0,1-2.35-16.19c.42-14.86,4.92-32.47,7.78-46.93" transform="translate(-0.04 -0.03)"/><path class="cls-2" d="M67.26,158.31c-.41-1-1.32-2.44-2.71-1.05" transform="translate(-0.04 -0.03)"/><path class="cls-2" d="M64.68,173.06c3.52,2.54,5.52-1.23,3.55-3.63-2.21-2.7-3.27-4.27-3.21-8.2" transform="translate(-0.04 -0.03)"/><path class="cls-1" d="M72.31,209h21a.66.66,0,0,1,.64.64l1,14.16H61.32c-.63-5.93,3.71-7.72,8.83-10.27C72.15,212.08,72.31,209,72.31,209Z" transform="translate(-0.04 -0.03)"/><path class="cls-2" d="M72.31,209h21a.66.66,0,0,1,.64.64l1,14.16H61.32c-.63-5.93,3.71-7.72,8.83-10.27C72.15,212.08,72.31,209,72.31,209Z" transform="translate(-0.04 -0.03)"/><rect class="cls-3" x="60.65" y="221.53" width="35.26" height="4.31" rx="0.64"/><rect class="cls-2" x="60.65" y="221.53" width="35.26" height="4.31" rx="0.64"/><path class="cls-1" d="M93,209h21a.66.66,0,0,1,.64.64l1,14.16H82c-.63-5.93,3.71-7.72,8.83-10.27C92.83,212.08,93,209,93,209Z" transform="translate(-0.04 -0.03)"/><path class="cls-2" d="M93,209h21a.66.66,0,0,1,.64.64l1,14.16H82c-.63-5.93,3.71-7.72,8.83-10.27C92.83,212.08,93,209,93,209Z" transform="translate(-0.04 -0.03)"/><rect class="cls-3" x="81.33" y="221.53" width="35.26" height="4.31" rx="0.64"/><rect class="cls-2" x="81.33" y="221.53" width="35.26" height="4.31" rx="0.64"/><path class="cls-1" d="M78.22,48.4v17C78.22,88,67.94,92.78,67.3,116c-.12,4.25,3.68,3.72,4.33,9.43,4.8,1.17,17.65-3.52,22.45-2.36,4.78-1.16,17.42,8.34,22.21,7.17,8.38-37-9.32-44.17-9.32-63.41V48.4C107,29.46,78.24,30.11,78.22,48.4Z" transform="translate(-0.04 -0.03)"/><path class="cls-2" d="M78.22,48.4v17C78.22,88,67.94,92.78,67.3,116c-.12,4.25,3.68,3.72,4.33,9.43,4.8,1.17,17.65-3.52,22.45-2.36,4.78-1.16,17.42,8.34,22.21,7.17,8.38-37-9.32-44.17-9.32-63.41V48.4C107,29.46,78.24,30.11,78.22,48.4Z" transform="translate(-0.04 -0.03)"/><path class="cls-1" d="M78.22,48.4v17a63.12,63.12,0,0,1-.42,7.53h29.77a31.86,31.86,0,0,1-.59-6V48.47C107,29.46,78.24,30.11,78.22,48.4Z" transform="translate(-0.04 -0.03)"/><path class="cls-2" d="M78.22,48.4v17a63.12,63.12,0,0,1-.42,7.53h29.77a31.86,31.86,0,0,1-.59-6V48.47C107,29.46,78.24,30.11,78.22,48.4Z" transform="translate(-0.04 -0.03)"/><path class="cls-1" d="M106.91,46.89c-1.42-16.88-27.1-16.33-28.62,0Z" transform="translate(-0.04 -0.03)"/><path class="cls-2" d="M106.91,46.89c-1.42-16.88-27.1-16.33-28.62,0Z" transform="translate(-0.04 -0.03)"/><path class="cls-1" d="M118.23,115.37a2.56,2.56,0,0,0,0,.62c.18,9.67-2.94,15-2.92,23.83.06,19.15.58,68.39.52,69.38H71.13s-.39-50.1-.12-68.88c.15-10-2.75-12.87-3.83-24.22,0-.24,0-.49,0-.73Z" transform="translate(-0.04 -0.03)"/><path class="cls-2" d="M118.23,115.37a2.56,2.56,0,0,0,0,.62c.18,9.67-2.94,15-2.92,23.83.06,19.15.58,68.39.52,69.38H71.13s-.39-50.1-.12-68.88c.15-10-2.75-12.87-3.83-24.22,0-.24,0-.49,0-.73Z" transform="translate(-0.04 -0.03)"/><path class="cls-4" d="M79.49,58.37a1.68,1.68,0,1,0-1.67-1.69h0a1.68,1.68,0,0,0,1.66,1.68Z" transform="translate(-0.04 -0.03)"/><path class="cls-2" d="M79.49,58.37a1.68,1.68,0,1,0-1.67-1.69h0a1.68,1.68,0,0,0,1.66,1.68Z" transform="translate(-0.04 -0.03)"/><path class="cls-4" d="M93.52,55a1.68,1.68,0,1,0,1.67,1.69v0A1.67,1.67,0,0,0,93.52,55Z" transform="translate(-0.04 -0.03)"/><path class="cls-2" d="M93.52,55a1.68,1.68,0,1,0,1.67,1.69v0A1.67,1.67,0,0,0,93.52,55Z" transform="translate(-0.04 -0.03)"/><path class="cls-2" d="M92.79,140.52c0-4.09-6.71-3.7-9.17-9.52" transform="translate(-0.04 -0.03)"/><path class="cls-5" d="M80.12,50.21a3.38,3.38,0,0,0-1.93.3" transform="translate(-0.04 -0.03)"/><path class="cls-5" d="M92.81,50.21a3.38,3.38,0,0,1,1.93.3" transform="translate(-0.04 -0.03)"/><path class="cls-1" d="M106.71,70.29H78.21a2,2,0,0,0,0,4h28.5a2,2,0,0,0,0-4Z" transform="translate(-0.04 -0.03)"/><path class="cls-5" d="M106.71,70.29H78.21a2,2,0,0,0,0,4h28.5a2,2,0,0,0,0-4Z" transform="translate(-0.04 -0.03)"/><line class="cls-5" x1="106.94" y1="46.72" x2="63.1" y2="46.72"/><path class="cls-6" d="M115.37,139.06l-8.53-38.58c-.1.74.91,7.88,1.84,14.89,0,.27,1-.3,1.07,0,1.82,13.56,5.07,30.31,3.06,43.68-.59,3.9,2.21,4.92,2.07,4.64a7.84,7.84,0,0,1-.47-4.78c.37-2,1.68-3,1-4Z" transform="translate(-0.04 -0.03)"/><path class="cls-5" d="M115.37,139.06l-8.53-38.58c-.1.74.91,7.88,1.84,14.89,0,.27,1-.3,1.07,0,1.82,13.56,5.07,30.31,3.06,43.68-.59,3.9,2.21,4.92,2.07,4.64a7.84,7.84,0,0,1-.47-4.78c.37-2,1.68-3,1-4Z" transform="translate(-0.04 -0.03)"/><path class="cls-6" d="M71.3,94.89c-1.25,3.73-5.42,14-5.14,22.06.2,5.82,1,8.68,3.2,15.78,1.58,5.15,1.55,10.4,1.67,7.26.34-8.73-4.15-17.29-3.87-24.62A72.07,72.07,0,0,1,71.3,94.89Z" transform="translate(-0.04 -0.03)"/><path class="cls-5" d="M71.3,94.89c-1.25,3.73-5.42,14-5.14,22.06.2,5.82,1,8.68,3.2,15.78,1.58,5.15,1.55,10.4,1.67,7.26.34-8.73-4.15-17.29-3.87-24.62A72.07,72.07,0,0,1,71.3,94.89Z" transform="translate(-0.04 -0.03)"/><path class="cls-6" d="M77.81,74.24,77.38,76a141.09,141.09,0,0,1,16.78-1.7Z" transform="translate(-0.04 -0.03)"/><path class="cls-5" d="M77.81,74.24,77.38,76a141.09,141.09,0,0,1,16.78-1.7Z" transform="translate(-0.04 -0.03)"/><path class="cls-6" d="M72.13,209.17l-.44,1.76a150.13,150.13,0,0,1,16.79-1.7Z" transform="translate(-0.04 -0.03)"/><path class="cls-5" d="M72.13,209.17l-.44,1.76a150.13,150.13,0,0,1,16.79-1.7Z" transform="translate(-0.04 -0.03)"/><path class="cls-6" d="M93.09,209.17l-.44,1.76a147.81,147.81,0,0,1,16.79-1.7Z" transform="translate(-0.04 -0.03)"/><path class="cls-5" d="M93.09,209.17l-.44,1.76a147.81,147.81,0,0,1,16.79-1.7Z" transform="translate(-0.04 -0.03)"/><path class="cls-6" d="M78.66,46.67l-.43,1.77A142.32,142.32,0,0,1,95,46.74Z" transform="translate(-0.04 -0.03)"/><path class="cls-5" d="M78.66,46.67l-.43,1.77A142.32,142.32,0,0,1,95,46.74Z" transform="translate(-0.04 -0.03)"/><path class="cls-5" d="M83.69,58.42h0a2.53,2.53,0,0,0,5,.32,1.71,1.71,0,0,0,0-.32" transform="translate(-0.04 -0.03)"/><path class="cls-6" d="M79.49,56.69a.2.2,0,0,0,0,.39.18.18,0,0,0,.19-.19h0a.19.19,0,0,0-.18-.2Z" transform="translate(-0.04 -0.03)"/><path class="cls-2" d="M79.49,56.69a.2.2,0,0,0,0,.39.18.18,0,0,0,.19-.19h0a.19.19,0,0,0-.18-.2Z" transform="translate(-0.04 -0.03)"/><path class="cls-6" d="M93.71,57.08a.19.19,0,0,0,.19-.2.19.19,0,0,0-.38,0h0a.2.2,0,0,0,.18.2Z" transform="translate(-0.04 -0.03)"/><path class="cls-2" d="M93.71,57.08a.19.19,0,0,0,.19-.2.19.19,0,0,0-.38,0h0a.2.2,0,0,0,.18.2Z" transform="translate(-0.04 -0.03)"/><line class="cls-5" x1="92.72" y1="209.17" x2="92.72" y2="140.37"/><path class="cls-1" d="M122.37,164.11c.69-.18-1.52,5.45-1.16,6.49.7,2,3.69.1,4.25-.81.28-.45,4,2.6,4.25-5.51.08-2.57-1.71-12.15-1.9-15.62-.87-16-6.61-55.82-19.92-72.57-1-1.25-1.85-.41-2.67-.22-1.31.31-2.5,1.12-3.78,5.65-1.35,4.79.83,16.31,5,19,3.1,14.46,7.9,32.07,8.56,46.93.15,3.18.52,5.42,0,7.26-.43,1.55-1.65,2.64-2.44,5.55-.54,2,2.3,6.75,3.79,6.08,1-.44,1.22-1.16,2.27-4.52.27-.84,1.54-4.11,2.13-4.39,1.34-.74,1.89,4.72,1.66,6.72" transform="translate(-0.04 -0.03)"/><path class="cls-2" d="M122.41,163a14.86,14.86,0,0,1-1.22,6.2c-.55,1.37.32,2,1.32,2.07,1.4.15,2.49-.85,3.54-3.65a19.1,19.1,0,0,0,.91-7.43c-.12-1.44,1.71-1.79,1.55-4-1.24-10.65-2.71-52.77-20.25-80.32" transform="translate(-0.04 -0.03)"/><path class="cls-2" d="M122.37,164.11c.23-2-.32-7.46-1.66-6.72-.59.28-1.86,3.55-2.13,4.39-.42,1.34-.54,2.92-.85,3.65-1.08,2.44-4.3-.73-4.83-2.92-1-4.21,1.88-7.31,2.06-7.84.63-1.83.09-5,0-7.26-.66-14.86-5.46-32.47-8.56-46.93" transform="translate(-0.04 -0.03)"/><path class="cls-1" d="M122.23,158.49c.87,3,0,11.45-2.76,13.1-1.34.8-3.13.17-3.33-.71-.5-2.13.65-2.68,1.22-5.77a25.14,25.14,0,0,0,.09-8.12c-.38-2.07,2.28-3.52,4.22.2A5.16,5.16,0,0,1,122.23,158.49Z" transform="translate(-0.04 -0.03)"/><path class="cls-5" d="M122.23,158.49c.87,3,0,11.45-2.76,13.1-1.34.8-3.13.17-3.33-.71-.5-2.13.65-2.68,1.22-5.77a25.14,25.14,0,0,0,.09-8.12c-.38-2.07,2.28-3.52,4.22.2A5.16,5.16,0,0,1,122.23,158.49Z" transform="translate(-0.04 -0.03)"/><path class="cls-5" d="M128.09,152.69c-.1.55,1.87,7.37,1.48,12.17-.22,2.67-1.85,6.13-4.11,4.93" transform="translate(-0.04 -0.03)"/><path class="cls-1" d="M120.37,151.38a4.11,4.11,0,0,0-3.88,4.2,3.92,3.92,0,0,0,3.63,4.19h.1a4.1,4.1,0,0,0,3.88-4.2,3.92,3.92,0,0,0-3.64-4.19h-.09" transform="translate(-0.04 -0.03)"/><path class="cls-1" d="M127,152.09c-.81,0-3.82,7.4-.88,7.69s1.15,5,2,5,1-2.64,1-3.86-1.3-8.85-2.12-8.85" transform="translate(-0.04 -0.03)"/><path class="cls-5" d="M117.59,159.06c0-.87-.75-1.14-.89.18a5,5,0,0,0,.82,3.26" transform="translate(-0.04 -0.03)"/><path class="cls-7" d="M47.74.31h-24A23.53,23.53,0,0,0,.32,23.76h0A23.53,23.53,0,0,0,23.78,47.22H42.34c.82,1.91,3.13,4,5.7,5.17,5.72,2.63,12.83,1.46,10,.26-3.4-1.43-4.07-4-3.18-6.54A23.53,23.53,0,0,0,71.22,23.76h0A23.52,23.52,0,0,0,47.74.31Z" transform="translate(-0.04 -0.03)"/><path class="cls-8" d="M47.74.31h-24A23.53,23.53,0,0,0,.32,23.76h0A23.53,23.53,0,0,0,23.78,47.22H42.34c.82,1.91,3.13,4,5.7,5.17,5.72,2.63,12.83,1.46,10,.26-3.4-1.43-4.07-4-3.18-6.54A23.53,23.53,0,0,0,71.22,23.76h0A23.52,23.52,0,0,0,47.74.31Z" transform="translate(-0.04 -0.03)"/><path class="cls-9" d="M22.41,25.47c5.74-5.61,7.9-13.9,4.86-9.81-1.49,2-5,13.83-4.62,13,.9-2,5.64-9.78,4.3-2.74-.59,3.12-.09,3.57,2.56,1.06,4.87-4.61.34-7.51.08.93-.07,2.13,3.95.06,5.74-2.53,5.54-8,2.86-13.19-.21-1.53-2.11,8,4.46,5.64,7.9-4.07,2.18-6.13-1.54-2.21-2.91,3.27-.22.89-1,5.88,1.2,5.1.91-.32,1.48-2.27,1.43-.71-.06,2,3.19-1.21,3.46-3.44.72-5.86-5,2.52-2.26,2.39,1.35-.06,3-.39,3.47-2" transform="translate(-0.04 -0.03)"/></svg>