<svg id="Layer_1" data-name="Layer 1" xmlns="http://www.w3.org/2000/svg" viewBox="0 0 91.73 156.06"><defs><style>.cls-1,.cls-4,.cls-6{fill-rule:evenodd;}.cls-2,.cls-5{fill:none;stroke:#000;stroke-linecap:round;stroke-width:0.57px;}.cls-2{stroke-miterlimit:22.93;}.cls-3,.cls-4{fill:#ffbffb;}.cls-5{stroke-linejoin:round;}.cls-6{fill:#fff;}</style></defs><path class="cls-1" d="M7.24,53.17H35A5.39,5.39,0,0,1,39.9,57l4.57,17.29a2.87,2.87,0,0,1-2.84,3.85H13.9A5.39,5.39,0,0,1,9,74.32L4.4,57a2.88,2.88,0,0,1,1.73-3.69A2.81,2.81,0,0,1,7.24,53.17Z" transform="translate(-0.05 -0.07)"/><path class="cls-2" d="M7.24,53.17H35A5.39,5.39,0,0,1,39.9,57l4.57,17.29a2.87,2.87,0,0,1-2.84,3.85H13.9A5.39,5.39,0,0,1,9,74.32L4.4,57a2.88,2.88,0,0,1,1.73-3.69A2.81,2.81,0,0,1,7.24,53.17Z" transform="translate(-0.05 -0.07)"/><rect class="cls-3" x="11.08" y="77.85" width="28.5" height="3.36" rx="1.68"/><rect class="cls-2" x="11.08" y="77.85" width="28.5" height="3.36" rx="1.68"/><rect class="cls-3" x="11.08" y="77.85" width="20.75" height="3.36" rx="1.68"/><rect class="cls-2" x="11.08" y="77.85" width="20.75" height="3.36" rx="1.68"/><path class="cls-4" d="M28.9,138.59h21a.67.67,0,0,1,.64.64l1,14.16H17.9c-.63-5.93,3.71-7.73,8.84-10.27C28.69,141.65,28.9,138.59,28.9,138.59Z" transform="translate(-0.05 -0.07)"/><path class="cls-5" d="M28.9,138.59h21a.67.67,0,0,1,.64.64l1,14.16H17.9c-.63-5.93,3.71-7.73,8.84-10.27C28.69,141.65,28.9,138.59,28.9,138.59Z" transform="translate(-0.05 -0.07)"/><rect class="cls-3" x="17.17" y="151.06" width="35.26" height="4.31" rx="0.64"/><rect class="cls-5" x="17.17" y="151.06" width="35.26" height="4.31" rx="0.64"/><path class="cls-1" d="M28.43,138.89,28,140.66A143.39,143.39,0,0,1,44.78,139Z" transform="translate(-0.05 -0.07)"/><path class="cls-2" d="M28.43,138.89,28,140.66A143.39,143.39,0,0,1,44.78,139Z" transform="translate(-0.05 -0.07)"/><path class="cls-4" d="M12,138.63H33a.66.66,0,0,1,.64.64l1,14.16H1c-.63-5.93,3.71-7.73,8.83-10.27C11.79,141.69,12,138.63,12,138.63Z" transform="translate(-0.05 -0.07)"/><path class="cls-5" d="M12,138.63H33a.66.66,0,0,1,.64.64l1,14.16H1c-.63-5.93,3.71-7.73,8.83-10.27C11.79,141.69,12,138.63,12,138.63Z" transform="translate(-0.05 -0.07)"/><rect class="cls-3" x="0.28" y="151.09" width="35.26" height="4.31" rx="0.64"/><rect class="cls-5" x="0.28" y="151.09" width="35.26" height="4.31" rx="0.64"/><path class="cls-1" d="M12.24,138.93l-.44,1.76A150.13,150.13,0,0,1,28.59,139Z" transform="translate(-0.05 -0.07)"/><path class="cls-2" d="M12.24,138.93l-.44,1.76A150.13,150.13,0,0,1,28.59,139Z" transform="translate(-0.05 -0.07)"/><path class="cls-4" d="M49.68,14.31v17c.15,21.11-12.37,21.53-10.92,50.63.21,4.25,3.68,3.72,4.33,9.43,4.8,1.17,17.65-3.52,22.45-2.36C70.33,87.85,82.2,97.44,87,96.27c1.29-5.64,2.86-9,2.82-13.44-.19-27-11.39-33.72-11.37-50V14.37C78.47-4.63,49.71-4,49.68,14.31Z" transform="translate(-0.05 -0.07)"/><path class="cls-5" d="M49.68,14.31v17c.15,21.11-12.37,21.53-10.92,50.63.21,4.25,3.68,3.72,4.33,9.43,4.8,1.17,17.65-3.52,22.45-2.36C70.33,87.85,82.2,97.44,87,96.27c1.29-5.64,2.86-9,2.82-13.44-.19-27-11.39-33.72-11.37-50V14.37C78.47-4.63,49.71-4,49.68,14.31Z" transform="translate(-0.05 -0.07)"/><path class="cls-4" d="M32.71,81.28c-8.34.49-22.54,4.08-21.92,23.7,0,19.15-.08,33,0,33.94-.79.25,39.75.2,39.75.2s-.29-22.64-.16-27.05c.11-3.71.29-6.72,5.55-6.7.93,0,12.64,0,13.62.06,8.08.3,22.2,1,21.94-15,0-2.4-.75-4.79-1.75-8.44a4.45,4.45,0,0,1,0-.73H43.26C40,81.28,35.9,81.1,32.71,81.28Z" transform="translate(-0.05 -0.07)"/><path class="cls-5" d="M32.71,81.28c-8.34.49-22.54,4.08-21.92,23.7,0,19.15-.08,33,0,33.94-.79.25,39.75.2,39.75.2s-.29-22.64-.16-27.05c.11-3.71.29-6.72,5.55-6.7.93,0,12.64,0,13.62.06,8.08.3,22.2,1,21.94-15,0-2.4-.75-4.79-1.75-8.44a4.45,4.45,0,0,1,0-.73H43.26C40,81.28,35.9,81.1,32.71,81.28Z" transform="translate(-0.05 -0.07)"/><path class="cls-6" d="M50.81,24.28a1.68,1.68,0,1,0,0-3.36,1.69,1.69,0,0,0-1.69,1.67h0A1.68,1.68,0,0,0,50.81,24.28Z" transform="translate(-0.05 -0.07)"/><path class="cls-5" d="M50.81,24.28a1.68,1.68,0,1,0,0-3.36,1.69,1.69,0,0,0-1.69,1.67h0A1.68,1.68,0,0,0,50.81,24.28Z" transform="translate(-0.05 -0.07)"/><path class="cls-5" d="M65.9,105.39c8.12-.22,11-6.61,10.8-13.49" transform="translate(-0.05 -0.07)"/><path class="cls-2" d="M51.34,16.69a3.26,3.26,0,0,0-1.77-.84" transform="translate(-0.05 -0.07)"/><path class="cls-4" d="M78.17,36.2H49.67a2,2,0,0,0,0,4h28.5a2,2,0,0,0,0-4Z" transform="translate(-0.05 -0.07)"/><path class="cls-2" d="M78.17,36.2H49.67a2,2,0,0,0,0,4h28.5a2,2,0,0,0,0-4Z" transform="translate(-0.05 -0.07)"/><line class="cls-2" x1="78.39" y1="12.58" x2="34.55" y2="12.58"/><path class="cls-1" d="M49,40.22,48.6,42a143.38,143.38,0,0,1,16.79-1.7Z" transform="translate(-0.05 -0.07)"/><path class="cls-2" d="M49,40.22,48.6,42a143.38,143.38,0,0,1,16.79-1.7Z" transform="translate(-0.05 -0.07)"/><path class="cls-1" d="M50.13,12.58l-.44,1.77a141.26,141.26,0,0,1,16.79-1.7Z" transform="translate(-0.05 -0.07)"/><path class="cls-2" d="M50.13,12.58l-.44,1.77a141.26,141.26,0,0,1,16.79-1.7Z" transform="translate(-0.05 -0.07)"/><path class="cls-4" d="M52.2,30.75c-2.71-1.6-.31-4.23,1.38-2.4C53.84,28.64,52.9,30.39,52.2,30.75Z" transform="translate(-0.05 -0.07)"/><path class="cls-2" d="M52.2,30.75c-2.71-1.6-.31-4.23,1.38-2.4C53.84,28.64,52.9,30.39,52.2,30.75Z" transform="translate(-0.05 -0.07)"/><path class="cls-1" d="M49.64,22.91a.2.2,0,0,0-.19.19h0a.19.19,0,0,0,.19.19h0a.19.19,0,0,0,.19-.19A.2.2,0,0,0,49.64,22.91Z" transform="translate(-0.05 -0.07)"/><path class="cls-5" d="M49.64,22.91a.2.2,0,0,0-.19.19h0a.19.19,0,0,0,.19.19h0a.19.19,0,0,0,.19-.19A.2.2,0,0,0,49.64,22.91Z" transform="translate(-0.05 -0.07)"/><path class="cls-2" d="M49.65,32.07c.89,0,2.23-1,3.11-1.83" transform="translate(-0.05 -0.07)"/><path class="cls-2" d="M34.24,138.91V108.74c0-1.73.56-3.09,2.6-3.25l19.07-.12" transform="translate(-0.05 -0.07)"/><path d="M50,105.43H82.06a5.27,5.27,0,0,1,5.28,5.28h0A5.27,5.27,0,0,1,82.06,116H50a5.28,5.28,0,0,1-5.28-5.28h0A5.28,5.28,0,0,1,50,105.43Z" transform="translate(-0.05 -0.07)"/><path class="cls-2" d="M50,105.43H82.06a5.27,5.27,0,0,1,5.28,5.28h0A5.27,5.27,0,0,1,82.06,116H50a5.28,5.28,0,0,1-5.28-5.28h0A5.28,5.28,0,0,1,50,105.43Z" transform="translate(-0.05 -0.07)"/><path class="cls-1" d="M64.61,108.93h0a2.56,2.56,0,0,1,1.45,3.32L49.9,153.59a2.56,2.56,0,0,1-4.77-1.87l16.13-41.33a2.58,2.58,0,0,1,3.33-1.47Z" transform="translate(-0.05 -0.07)"/><path class="cls-2" d="M64.61,108.93h0a2.56,2.56,0,0,1,1.45,3.32L49.9,153.59a2.56,2.56,0,0,1-4.77-1.87l16.13-41.33a2.58,2.58,0,0,1,3.33-1.47Z" transform="translate(-0.05 -0.07)"/><path class="cls-1" d="M68.24,108.93h0a2.58,2.58,0,0,0-1.46,3.32L82.9,153.59a2.56,2.56,0,0,0,4.77-1.87L71.53,110.39A2.56,2.56,0,0,0,68.24,108.93Z" transform="translate(-0.05 -0.07)"/><path class="cls-2" d="M68.24,108.93h0a2.58,2.58,0,0,0-1.46,3.32L82.9,153.59a2.56,2.56,0,0,0,4.77-1.87L71.53,110.39A2.56,2.56,0,0,0,68.24,108.93Z" transform="translate(-0.05 -0.07)"/><path class="cls-1" d="M66.14,106.17h0a2.57,2.57,0,0,1,2.56,2.57l0,44.38a2.57,2.57,0,1,1-5.13.32v-44.7a2.59,2.59,0,0,1,2.59-2.57Z" transform="translate(-0.05 -0.07)"/><path class="cls-2" d="M66.14,106.17h0a2.57,2.57,0,0,1,2.56,2.57l0,44.38a2.57,2.57,0,1,1-5.13.32v-44.7a2.59,2.59,0,0,1,2.59-2.57Z" transform="translate(-0.05 -0.07)"/><path class="cls-4" d="M57.35,54.51C62.66,46,51.69,41.21,48.12,47c-3.51,4.94-5.38,9.6-10,13.88C36.9,62,26.59,66.07,23.58,67c-2.72.85-4.87,4.61-5.22,8.07-.27,2.69,2.13,3.44,3.6,1.36,0,1.46,1.55,1.67,2.56,1.15a4.65,4.65,0,0,0,1.39-1.69c0,.11-.44,2,1.2,1.89s1.79-1.89,2.45-2a52.81,52.81,0,0,0,7.11-2c7.27-2.51,13-4,16.52-11.31.45-.93,3.5-7.06,4.13-8" transform="translate(-0.05 -0.07)"/><path class="cls-2" d="M46.9,46.71c-2.5,5.39-4.16,9.63-8.75,13.9-1.22,1.14-11.53,5.22-14.54,6.16-2.72.85-4.87,4.9-5.22,8.36-.27,2.69,2.13,3.44,3.6,1.36,0,1.46,1.55,1.67,2.56,1.15A4.65,4.65,0,0,0,25.94,76c0,.11-.44,2,1.2,1.89s1.79-1.89,2.45-2a52.81,52.81,0,0,0,7.11-2c7.27-2.51,13-4,16.52-11.31.45-.93,3.5-7.06,4.13-8" transform="translate(-0.05 -0.07)"/><path class="cls-2" d="M21.9,76.56c.46-.93.85-2.34,1.75-3" transform="translate(-0.05 -0.07)"/><path class="cls-2" d="M26.27,74a7.11,7.11,0,0,0,5.4,1.36" transform="translate(-0.05 -0.07)"/><path class="cls-1" d="M38.9,74.92c.84.11,7.69-4.61,8.71-5.58.5-.48,2.19-1.88.07-.26a32.82,32.82,0,0,1-8.93,4.28,9.27,9.27,0,0,0,0,1.49Z" transform="translate(-0.05 -0.07)"/><path class="cls-2" d="M38.9,74.92c.84.11,7.69-4.61,8.71-5.58.5-.48,2.19-1.88.07-.26a32.82,32.82,0,0,1-8.93,4.28,9.27,9.27,0,0,0,0,1.49Z" transform="translate(-0.05 -0.07)"/></svg>